# xmcd CD database file
#
# Track frame offsets:
#	150
#	13320
#	34366
#	55491
#	80873
#	96981
#	113641
#	126207
#	150498
#	169744
#	187906
#	203446
#	226857
#	245825
#	263149
#
# Disc length: 3727 seconds
#
# Revision: 1
# Processed by: cddbd v1.4PL0 Copyright (c) Steve Scherf et al.
# Submitted via: CDex 1.51
#
DISCID=ca0e8d0f
DTITLE=Peter Ecklund - Reminiscing in Music
DYEAR=1999
DGENRE=Jazz
TTITLE0=Say it with a kiss
TTITLE1=Winter Waltz
TTITLE2=Django and Bix
TTITLE3=Blues My Naughty Sweetie Gives to Me
TTITLE4=Blue Bix
TTITLE5=When You're Smiling
TTITLE6=Russian Lullaby
TTITLE7=Tailfins
TTITLE8=My Blue Heaven
TTITLE9=Fuddy Duddy
TTITLE10=When you and I Were Young, Maggie
TTITLE11=At the Track
TTITLE12=At the Fair
TTITLE13=Midnight Hour Blues
TTITLE14=Blackey's Song
EXTD=YEAR: 1999
EXTT0=
EXTT1=
EXTT2=
EXTT3=
EXTT4=
EXTT5=
EXTT6=
EXTT7=
EXTT8=
EXTT9=
EXTT10=
EXTT11=
EXTT12=
EXTT13=
EXTT14=
PLAYORDER=
